<svg width="406" height="52" viewBox="0 0 406 52" fill="none" xmlns="http://www.w3.org/2000/svg">
<g clip-path="url(#clip0_406_22)">
<rect x="7" y="10" width="7" height="36" rx="3" fill="black"/>
<rect x="17" y="5" width="7" height="41" rx="3" fill="black"/>
<rect x="37" y="3" width="7" height="43" rx="3" fill="black"/>
<rect x="27" width="7" height="46" rx="3" fill="black"/>
<rect x="49.7603" y="14.3174" width="5.42938" height="54.5398" rx="2.71469" transform="rotate(67.9075 49.7603 14.3174)" fill="black"/>
<path d="M334.752 43V26.2H339.912C341.864 26.2 343.48 26.544 344.76 27.232C346.04 27.92 346.984 28.896 347.592 30.16C348.216 31.408 348.528 32.896 348.528 34.624C348.528 36.352 348.216 37.84 347.592 39.088C346.984 40.336 346.04 41.304 344.76 41.992C343.496 42.664 341.88 43 339.912 43H334.752ZM337.152 40.984H339.816C341.368 40.984 342.6 40.728 343.512 40.216C344.424 39.704 345.072 38.976 345.456 38.032C345.856 37.072 346.056 35.936 346.056 34.624C346.056 33.296 345.856 32.152 345.456 31.192C345.072 30.232 344.424 29.496 343.512 28.984C342.6 28.472 341.368 28.216 339.816 28.216H337.152V40.984ZM360.896 43.288C359.28 43.288 357.856 42.928 356.624 42.208C355.408 41.472 354.448 40.456 353.744 39.16C353.056 37.848 352.712 36.328 352.712 34.6C352.712 32.888 353.056 31.384 353.744 30.088C354.448 28.776 355.408 27.752 356.624 27.016C357.856 26.28 359.28 25.912 360.896 25.912C362.544 25.912 363.984 26.28 365.216 27.016C366.448 27.752 367.4 28.776 368.072 30.088C368.76 31.384 369.104 32.888 369.104 34.6C369.104 36.328 368.76 37.848 368.072 39.16C367.4 40.456 366.448 41.472 365.216 42.208C363.984 42.928 362.544 43.288 360.896 43.288ZM360.92 41.152C362.072 41.152 363.08 40.888 363.944 40.36C364.808 39.832 365.472 39.08 365.936 38.104C366.416 37.128 366.656 35.96 366.656 34.6C366.656 33.24 366.416 32.072 365.936 31.096C365.472 30.12 364.808 29.376 363.944 28.864C363.08 28.336 362.072 28.072 360.92 28.072C359.768 28.072 358.76 28.336 357.896 28.864C357.032 29.376 356.36 30.12 355.88 31.096C355.4 32.072 355.16 33.24 355.16 34.6C355.16 35.96 355.4 37.128 355.88 38.104C356.36 39.08 357.032 39.832 357.896 40.36C358.76 40.888 359.768 41.152 360.92 41.152ZM381.28 43.288C379.632 43.288 378.208 42.928 377.008 42.208C375.824 41.472 374.904 40.456 374.248 39.16C373.608 37.848 373.288 36.328 373.288 34.6C373.288 32.888 373.608 31.376 374.248 30.064C374.904 28.752 375.824 27.736 377.008 27.016C378.208 26.28 379.632 25.912 381.28 25.912C383.248 25.912 384.84 26.384 386.056 27.328C387.288 28.272 388.072 29.6 388.408 31.312H385.768C385.528 30.32 385.032 29.528 384.28 28.936C383.544 28.344 382.544 28.048 381.28 28.048C380.144 28.048 379.16 28.312 378.328 28.84C377.496 29.368 376.856 30.12 376.408 31.096C375.96 32.072 375.736 33.24 375.736 34.6C375.736 35.96 375.96 37.136 376.408 38.128C376.856 39.104 377.496 39.856 378.328 40.384C379.16 40.896 380.144 41.152 381.28 41.152C382.544 41.152 383.544 40.872 384.28 40.312C385.032 39.736 385.528 38.96 385.768 37.984H388.408C388.072 39.648 387.288 40.952 386.056 41.896C384.84 42.824 383.248 43.288 381.28 43.288ZM398.695 43.288C397.463 43.288 396.383 43.072 395.455 42.64C394.527 42.192 393.807 41.568 393.295 40.768C392.783 39.968 392.527 39.032 392.527 37.96H395.047C395.063 38.568 395.207 39.128 395.479 39.64C395.767 40.136 396.175 40.536 396.703 40.84C397.247 41.128 397.911 41.272 398.695 41.272C399.367 41.272 399.943 41.16 400.423 40.936C400.919 40.712 401.295 40.408 401.551 40.024C401.807 39.624 401.935 39.168 401.935 38.656C401.935 38.064 401.799 37.576 401.527 37.192C401.255 36.808 400.887 36.496 400.423 36.256C399.975 36 399.447 35.776 398.839 35.584C398.247 35.392 397.623 35.184 396.967 34.96C395.639 34.528 394.647 33.968 393.991 33.28C393.351 32.592 393.031 31.696 393.031 30.592C393.031 29.648 393.255 28.832 393.703 28.144C394.151 27.44 394.775 26.896 395.575 26.512C396.391 26.112 397.351 25.912 398.455 25.912C399.543 25.912 400.495 26.112 401.311 26.512C402.127 26.912 402.767 27.464 403.231 28.168C403.695 28.872 403.927 29.696 403.927 30.64H401.383C401.383 30.208 401.271 29.784 401.047 29.368C400.823 28.952 400.487 28.616 400.039 28.36C399.591 28.088 399.039 27.952 398.383 27.952C397.839 27.936 397.351 28.024 396.919 28.216C396.487 28.408 396.151 28.688 395.911 29.056C395.671 29.424 395.551 29.864 395.551 30.376C395.551 30.888 395.655 31.304 395.863 31.624C396.087 31.928 396.407 32.192 396.823 32.416C397.239 32.64 397.719 32.848 398.263 33.04C398.823 33.216 399.439 33.416 400.111 33.64C400.943 33.912 401.679 34.248 402.319 34.648C402.975 35.032 403.487 35.536 403.855 36.16C404.239 36.768 404.431 37.552 404.431 38.512C404.431 39.344 404.215 40.12 403.783 40.84C403.351 41.56 402.711 42.152 401.863 42.616C401.015 43.064 399.959 43.288 398.695 43.288Z" fill="#0B9797"/>
<path d="M79.2 43L91.488 9.4H97.92L110.208 43H104.112L94.656 16.12L85.2 43H79.2ZM84.672 35.08L86.208 30.52H102.768L104.304 35.08H84.672ZM118.67 43V9.4H130.766C133.454 9.4 135.678 9.864 137.438 10.792C139.198 11.688 140.51 12.904 141.374 14.44C142.238 15.976 142.67 17.736 142.67 19.72C142.67 21.576 142.254 23.288 141.422 24.856C140.59 26.392 139.294 27.64 137.534 28.6C135.774 29.528 133.518 29.992 130.766 29.992H124.43V43H118.67ZM124.43 25.288H130.43C132.702 25.288 134.334 24.792 135.326 23.8C136.318 22.776 136.814 21.416 136.814 19.72C136.814 17.96 136.318 16.584 135.326 15.592C134.334 14.6 132.702 14.104 130.43 14.104H124.43V25.288ZM151.479 43V9.4H157.239V43H151.479ZM175.994 43V12.184H165.914V9.4H189.434V12.184H179.354V43H175.994ZM192.491 43L204.875 9.4H208.331L220.715 43H217.163L206.603 13.816L195.995 43H192.491ZM198.155 33.928L199.163 31.144H213.995L215.003 33.928H198.155ZM229.897 43V9.4H233.257V40.264H249.145V43H229.897ZM258.675 43V9.4H262.035V40.264H277.923V43H258.675ZM290.879 43V29.896L280.031 9.4H283.823L293.135 27.928H291.983L301.247 9.4H304.991L294.239 29.896V43H290.879Z" fill="black"/>
</g>
<defs>
<clipPath id="clip0_406_22">
<rect width="406" height="52" fill="white"/>
</clipPath>
</defs>
</svg>
