<svg width="434" height="65" viewBox="0 0 434 65" fill="none" xmlns="http://www.w3.org/2000/svg">
<rect width="65" height="65" rx="12" fill="#0F4040"/>
<rect x="14" y="19" width="7" height="36" rx="3" fill="white"/>
<rect x="24" y="14" width="7" height="41" rx="3" fill="white"/>
<rect x="44" y="12" width="7" height="43" rx="3" fill="white"/>
<rect x="34" y="9" width="7" height="46" rx="3" fill="white"/>
<rect x="56.7603" y="23.3174" width="5.42938" height="54.5398" rx="2.71469" transform="rotate(67.9075 56.7603 23.3174)" fill="white"/>
<path d="M89.3 52L102.612 15.6H109.58L122.892 52H116.288L106.044 22.88L95.8 52H89.3ZM95.228 43.42L96.892 38.48H114.832L116.496 43.42H95.228ZM132.059 52V15.6H145.163C148.075 15.6 150.484 16.1027 152.391 17.108C154.298 18.0787 155.719 19.396 156.655 21.06C157.591 22.724 158.059 24.6307 158.059 26.78C158.059 28.7907 157.608 30.6453 156.707 32.344C155.806 34.008 154.402 35.36 152.495 36.4C150.588 37.4053 148.144 37.908 145.163 37.908H138.299V52H132.059ZM138.299 32.812H144.799C147.26 32.812 149.028 32.2747 150.103 31.2C151.178 30.0907 151.715 28.6173 151.715 26.78C151.715 24.8733 151.178 23.3827 150.103 22.308C149.028 21.2333 147.26 20.696 144.799 20.696H138.299V32.812ZM167.602 52V15.6H173.842V52H167.602ZM194.16 52V18.616H183.24V15.6H208.72V18.616H197.8V52H194.16ZM212.032 52L225.448 15.6H229.192L242.608 52H238.76L227.32 20.384L215.828 52H212.032ZM218.168 42.172L219.26 39.156H235.328L236.42 42.172H218.168ZM252.555 52V15.6H256.195V49.036H273.407V52H252.555ZM283.731 52V15.6H287.371V49.036H304.583V52H283.731ZM318.619 52V37.804L306.867 15.6H310.975L321.063 35.672H319.815L329.851 15.6H333.907L322.259 37.804V52H318.619Z" fill="white"/>
<path d="M357.898 52V33.8H363.488C365.603 33.8 367.353 34.1727 368.74 34.918C370.127 35.6633 371.149 36.7207 371.808 38.09C372.484 39.442 372.822 41.054 372.822 42.926C372.822 44.798 372.484 46.41 371.808 47.762C371.149 49.114 370.127 50.1627 368.74 50.908C367.371 51.636 365.62 52 363.488 52H357.898ZM360.498 49.816H363.384C365.065 49.816 366.4 49.5387 367.388 48.984C368.376 48.4293 369.078 47.6407 369.494 46.618C369.927 45.578 370.144 44.3473 370.144 42.926C370.144 41.4873 369.927 40.248 369.494 39.208C369.078 38.168 368.376 37.3707 367.388 36.816C366.4 36.2613 365.065 35.984 363.384 35.984H360.498V49.816ZM386.221 52.312C384.47 52.312 382.927 51.922 381.593 51.142C380.275 50.3447 379.235 49.244 378.473 47.84C377.727 46.4187 377.355 44.772 377.355 42.9C377.355 41.0453 377.727 39.416 378.473 38.012C379.235 36.5907 380.275 35.4813 381.593 34.684C382.927 33.8867 384.47 33.488 386.221 33.488C388.006 33.488 389.566 33.8867 390.901 34.684C392.235 35.4813 393.267 36.5907 393.995 38.012C394.74 39.416 395.113 41.0453 395.113 42.9C395.113 44.772 394.74 46.4187 393.995 47.84C393.267 49.244 392.235 50.3447 390.901 51.142C389.566 51.922 388.006 52.312 386.221 52.312ZM386.247 49.998C387.495 49.998 388.587 49.712 389.523 49.14C390.459 48.568 391.178 47.7533 391.681 46.696C392.201 45.6387 392.461 44.3733 392.461 42.9C392.461 41.4267 392.201 40.1613 391.681 39.104C391.178 38.0467 390.459 37.2407 389.523 36.686C388.587 36.114 387.495 35.828 386.247 35.828C384.999 35.828 383.907 36.114 382.971 36.686C382.035 37.2407 381.307 38.0467 380.787 39.104C380.267 40.1613 380.007 41.4267 380.007 42.9C380.007 44.3733 380.267 45.6387 380.787 46.696C381.307 47.7533 382.035 48.568 382.971 49.14C383.907 49.712 384.999 49.998 386.247 49.998ZM408.304 52.312C406.518 52.312 404.976 51.922 403.676 51.142C402.393 50.3447 401.396 49.244 400.686 47.84C399.992 46.4187 399.646 44.772 399.646 42.9C399.646 41.0453 399.992 39.4073 400.686 37.986C401.396 36.5647 402.393 35.464 403.676 34.684C404.976 33.8867 406.518 33.488 408.304 33.488C410.436 33.488 412.16 33.9993 413.478 35.022C414.812 36.0447 415.662 37.4833 416.026 39.338H413.166C412.906 38.2633 412.368 37.4053 411.554 36.764C410.756 36.1227 409.673 35.802 408.304 35.802C407.073 35.802 406.007 36.088 405.106 36.66C404.204 37.232 403.511 38.0467 403.026 39.104C402.54 40.1613 402.298 41.4267 402.298 42.9C402.298 44.3733 402.54 45.6473 403.026 46.722C403.511 47.7793 404.204 48.594 405.106 49.166C406.007 49.7207 407.073 49.998 408.304 49.998C409.673 49.998 410.756 49.6947 411.554 49.088C412.368 48.464 412.906 47.6233 413.166 46.566H416.026C415.662 48.3687 414.812 49.7813 413.478 50.804C412.16 51.8093 410.436 52.312 408.304 52.312ZM427.17 52.312C425.835 52.312 424.665 52.078 423.66 51.61C422.655 51.1247 421.875 50.4487 421.32 49.582C420.765 48.7153 420.488 47.7013 420.488 46.54H423.218C423.235 47.1987 423.391 47.8053 423.686 48.36C423.998 48.8973 424.44 49.3307 425.012 49.66C425.601 49.972 426.321 50.128 427.17 50.128C427.898 50.128 428.522 50.0067 429.042 49.764C429.579 49.5213 429.987 49.192 430.264 48.776C430.541 48.3427 430.68 47.8487 430.68 47.294C430.68 46.6527 430.533 46.124 430.238 45.708C429.943 45.292 429.545 44.954 429.042 44.694C428.557 44.4167 427.985 44.174 427.326 43.966C426.685 43.758 426.009 43.5327 425.298 43.29C423.859 42.822 422.785 42.2153 422.074 41.47C421.381 40.7247 421.034 39.754 421.034 38.558C421.034 37.5353 421.277 36.6513 421.762 35.906C422.247 35.1433 422.923 34.554 423.79 34.138C424.674 33.7047 425.714 33.488 426.91 33.488C428.089 33.488 429.12 33.7047 430.004 34.138C430.888 34.5713 431.581 35.1693 432.084 35.932C432.587 36.6947 432.838 37.5873 432.838 38.61H430.082C430.082 38.142 429.961 37.6827 429.718 37.232C429.475 36.7813 429.111 36.4173 428.626 36.14C428.141 35.8453 427.543 35.698 426.832 35.698C426.243 35.6807 425.714 35.776 425.246 35.984C424.778 36.192 424.414 36.4953 424.154 36.894C423.894 37.2927 423.764 37.7693 423.764 38.324C423.764 38.8787 423.877 39.3293 424.102 39.676C424.345 40.0053 424.691 40.2913 425.142 40.534C425.593 40.7767 426.113 41.002 426.702 41.21C427.309 41.4007 427.976 41.6173 428.704 41.86C429.605 42.1547 430.403 42.5187 431.096 42.952C431.807 43.368 432.361 43.914 432.76 44.59C433.176 45.2487 433.384 46.098 433.384 47.138C433.384 48.0393 433.15 48.88 432.682 49.66C432.214 50.44 431.521 51.0813 430.602 51.584C429.683 52.0693 428.539 52.312 427.17 52.312Z" fill="#0B9797"/>
</svg>
